<svg xmlns="http://www.w3.org/2000/svg" width="91.877" height="84.732" viewBox="0 0 91.877 84.732">
  <g id="RT-Logo-New" transform="translate(-45.8 -63)">
    <path id="Path_1" data-name="Path 1" d="M81.855,147.732h-7.9L58.21,102.346l1.034-1.528H72.665V69.652H53.321v78.08H45.8V63H74.169a5.721,5.721,0,0,1,5.994,5.994v32.154c0,4.09-2.75,6.111-8.226,6.111-.541,0-1.34-.024-2.374-.071-1.058-.047-1.81-.071-2.28-.071Q74.616,127.389,81.855,147.732Z"/>
    <path id="Path_2" data-name="Path 2" d="M261.222,69.652H248.131v78.08h-7.521V69.652H227.4V63h33.846v6.652Z" transform="translate(-138.917)"/>
    <path id="Path_3" data-name="Path 3" d="M409.926,392.519H401.7V383h8.226Z" transform="translate(-272.249 -244.787)"/>
  </g>
</svg>
