<svg xmlns="http://www.w3.org/2000/svg" width="296.264" height="75.349" viewBox="0 0 296.264 75.349">
  <g id="AI_logo_Vertical" transform="translate(-20.62 -3.462)">
    <g id="Group_827" data-name="Group 827" transform="translate(20.789 12.357)">
      <path id="Path_1638" data-name="Path 1638" d="M22.112,45.93a1.747,1.747,0,0,1-.97-1,1.677,1.677,0,0,1,.046-1.356l8.269-17.827a1.855,1.855,0,0,1,3.35,0l8.286,17.827a1.643,1.643,0,0,1,.029,1.356,1.694,1.694,0,0,1-.953,1,1.838,1.838,0,0,1-.751.164,1.725,1.725,0,0,1-1.692-1.058l-1.57-3.4H26.121l-1.582,3.4a1.764,1.764,0,0,1-1.028.94,1.834,1.834,0,0,1-1.4-.046Zm5.671-7.866H34.5l-3.366-7.245Z" transform="translate(-21.021 -24.674)" fill="#083c58"/>
      <path id="Path_1639" data-name="Path 1639" d="M91.453,46.075a1.8,1.8,0,0,1-1.305-.52,1.7,1.7,0,0,1-.537-1.268V26.464a1.646,1.646,0,0,1,1.2-1.671,1.728,1.728,0,0,1,2.044.52l12.387,14.129V26.459a1.687,1.687,0,0,1,.537-1.251,1.784,1.784,0,0,1,1.293-.52,1.812,1.812,0,0,1,1.305.52,1.687,1.687,0,0,1,.537,1.251V44.286a1.648,1.648,0,0,1-1.2,1.683,1.951,1.951,0,0,1-.646.1,1.792,1.792,0,0,1-1.4-.625L93.283,31.32V44.286a1.71,1.71,0,0,1-.537,1.268,1.783,1.783,0,0,1-1.293.52Z" transform="translate(-60.82 -24.655)" fill="#083c58"/>
      <path id="Path_1640" data-name="Path 1640" d="M157.483,46.122a1.8,1.8,0,0,1-1.305-.52,1.7,1.7,0,0,1-.537-1.268V26.511a1.687,1.687,0,0,1,.537-1.251,1.8,1.8,0,0,1,1.305-.52,1.777,1.777,0,0,1,1.293.52,1.687,1.687,0,0,1,.537,1.251V44.338a1.71,1.71,0,0,1-.537,1.268,1.783,1.783,0,0,1-1.293.52Z" transform="translate(-99.133 -24.703)" fill="#083c58"/>
      <path id="Path_1641" data-name="Path 1641" d="M186.273,46.071a1.8,1.8,0,0,1-1.305-.52,1.7,1.7,0,0,1-.537-1.268V26.46a1.643,1.643,0,0,1,1.247-1.683,1.719,1.719,0,0,1,2.044.579l8.655,10.7,8.668-10.7a1.708,1.708,0,0,1,2.044-.579,1.643,1.643,0,0,1,1.247,1.683V44.287a1.71,1.71,0,0,1-.537,1.268,1.8,1.8,0,0,1-1.305.52,1.777,1.777,0,0,1-1.293-.52,1.7,1.7,0,0,1-.537-1.268V31.619l-6.825,8.42a1.783,1.783,0,0,1-1.461.684,1.752,1.752,0,0,1-1.444-.684l-6.825-8.42V44.287a1.71,1.71,0,0,1-.537,1.268,1.783,1.783,0,0,1-1.293.52Z" transform="translate(-115.838 -24.652)" fill="#083c58"/>
      <path id="Path_1642" data-name="Path 1642" d="M262.822,45.93a1.746,1.746,0,0,1-.97-1,1.677,1.677,0,0,1,.046-1.356l8.269-17.827a1.855,1.855,0,0,1,3.35,0L281.8,43.575a1.643,1.643,0,0,1,.029,1.356,1.694,1.694,0,0,1-.953,1,1.838,1.838,0,0,1-.751.164,1.725,1.725,0,0,1-1.692-1.058l-1.57-3.4H266.831l-1.582,3.4a1.764,1.764,0,0,1-1.028.94A1.834,1.834,0,0,1,262.822,45.93Zm5.671-7.866h6.716l-3.366-7.245Z" transform="translate(-160.692 -24.674)" fill="#083c58"/>
      <path id="Path_1643" data-name="Path 1643" d="M346.881,42.563a1.79,1.79,0,0,1,1.293.52,1.687,1.687,0,0,1,.537,1.251,1.723,1.723,0,0,1-.537,1.268,1.783,1.783,0,0,1-1.293.52H332.173a1.8,1.8,0,0,1-1.305-.52,1.7,1.7,0,0,1-.537-1.268V26.511a1.687,1.687,0,0,1,.537-1.251,1.8,1.8,0,0,1,1.305-.52,1.777,1.777,0,0,1,1.293.52A1.687,1.687,0,0,1,334,26.511V42.563h12.882Z" transform="translate(-200.496 -24.703)" fill="#083c58"/>
    </g>
    <g id="Group_828" data-name="Group 828" transform="translate(29.385 50.607)">
      <path id="Path_1644" data-name="Path 1644" d="M43.343,137.247a1.8,1.8,0,0,1-1.305-.521,1.7,1.7,0,0,1-.537-1.268V117.631a1.687,1.687,0,0,1,.537-1.251,1.8,1.8,0,0,1,1.305-.521,1.777,1.777,0,0,1,1.293.521,1.687,1.687,0,0,1,.537,1.251v17.827a1.71,1.71,0,0,1-.537,1.268A1.784,1.784,0,0,1,43.343,137.247Z" transform="translate(-41.5 -115.825)" fill="#083c58"/>
      <path id="Path_1645" data-name="Path 1645" d="M72.123,137.2a1.8,1.8,0,0,1-1.305-.521,1.7,1.7,0,0,1-.537-1.268V117.584a1.646,1.646,0,0,1,1.2-1.671,1.728,1.728,0,0,1,2.044.521l12.387,14.129V117.579a1.687,1.687,0,0,1,.537-1.251,1.783,1.783,0,0,1,1.293-.52,1.812,1.812,0,0,1,1.305.52,1.687,1.687,0,0,1,.537,1.251v17.827a1.648,1.648,0,0,1-1.2,1.683,1.951,1.951,0,0,1-.646.1,1.792,1.792,0,0,1-1.4-.625L73.953,122.44v12.966a1.71,1.71,0,0,1-.537,1.268,1.783,1.783,0,0,1-1.293.52Z" transform="translate(-58.199 -115.778)" fill="#083c58"/>
      <path id="Path_1646" data-name="Path 1646" d="M138.153,119.42a1.8,1.8,0,0,1-1.305-.521,1.7,1.7,0,0,1-.537-1.268,1.667,1.667,0,0,1,.537-1.251,1.8,1.8,0,0,1,1.305-.52h14.708a1.79,1.79,0,0,1,1.293.52,1.687,1.687,0,0,1,.537,1.251,1.723,1.723,0,0,1-.537,1.268,1.783,1.783,0,0,1-1.293.521h-5.52v16.035a1.71,1.71,0,0,1-.537,1.268,1.8,1.8,0,0,1-1.305.521,1.819,1.819,0,0,1-1.305-.521,1.7,1.7,0,0,1-.537-1.268V119.42Z" transform="translate(-96.513 -115.825)" fill="#083c58"/>
      <path id="Path_1647" data-name="Path 1647" d="M201.983,137.247a1.8,1.8,0,0,1-1.305-.521,1.7,1.7,0,0,1-.537-1.268V117.631a1.687,1.687,0,0,1,.537-1.251,1.8,1.8,0,0,1,1.305-.521h14.708a1.79,1.79,0,0,1,1.293.521,1.687,1.687,0,0,1,.537,1.251,1.723,1.723,0,0,1-.537,1.268,1.783,1.783,0,0,1-1.293.521H203.809v5.352H213a1.8,1.8,0,0,1,1.305.52,1.687,1.687,0,0,1,.537,1.251,1.723,1.723,0,0,1-.537,1.268,1.8,1.8,0,0,1-1.305.521h-9.193v5.352h12.882a1.79,1.79,0,0,1,1.293.52,1.687,1.687,0,0,1,.537,1.251,1.723,1.723,0,0,1-.537,1.268,1.783,1.783,0,0,1-1.293.52H201.983Z" transform="translate(-133.55 -115.825)" fill="#083c58"/>
      <path id="Path_1648" data-name="Path 1648" d="M280.531,133.677a1.79,1.79,0,0,1,1.293.521,1.687,1.687,0,0,1,.537,1.251,1.723,1.723,0,0,1-.537,1.268,1.783,1.783,0,0,1-1.293.52H265.823a1.8,1.8,0,0,1-1.305-.52,1.7,1.7,0,0,1-.537-1.268V117.621a1.687,1.687,0,0,1,.537-1.251,1.8,1.8,0,0,1,1.305-.52,1.777,1.777,0,0,1,1.293.52,1.687,1.687,0,0,1,.537,1.251v16.051h12.882Z" transform="translate(-170.593 -115.82)" fill="#083c58"/>
      <path id="Path_1649" data-name="Path 1649" d="M344.361,133.677a1.79,1.79,0,0,1,1.293.521,1.687,1.687,0,0,1,.537,1.251,1.723,1.723,0,0,1-.537,1.268,1.783,1.783,0,0,1-1.293.52H329.653a1.8,1.8,0,0,1-1.305-.52,1.7,1.7,0,0,1-.537-1.268V117.621a1.687,1.687,0,0,1,.537-1.251,1.8,1.8,0,0,1,1.305-.52,1.777,1.777,0,0,1,1.293.52,1.687,1.687,0,0,1,.537,1.251v16.051h12.882Z" transform="translate(-207.63 -115.82)" fill="#083c58"/>
      <path id="Path_1650" data-name="Path 1650" d="M393.483,137.247a1.8,1.8,0,0,1-1.305-.521,1.7,1.7,0,0,1-.537-1.268V117.631a1.687,1.687,0,0,1,.537-1.251,1.8,1.8,0,0,1,1.305-.521,1.777,1.777,0,0,1,1.293.521,1.687,1.687,0,0,1,.537,1.251v17.827a1.71,1.71,0,0,1-.537,1.268A1.784,1.784,0,0,1,393.483,137.247Z" transform="translate(-244.667 -115.825)" fill="#083c58"/>
      <path id="Path_1651" data-name="Path 1651" d="M423.648,134.109a10.476,10.476,0,0,1,0-15.128,11.278,11.278,0,0,1,15.6,0,1.687,1.687,0,0,1,.537,1.251,1.723,1.723,0,0,1-.537,1.268,1.783,1.783,0,0,1-1.293.521,1.812,1.812,0,0,1-1.305-.521,7.531,7.531,0,0,0-10.406,0,6.988,6.988,0,0,0,0,10.091,7.517,7.517,0,0,0,9.864.462v-3.727h-5.579a1.8,1.8,0,0,1-1.305-.521,1.7,1.7,0,0,1-.537-1.268,1.667,1.667,0,0,1,.537-1.251,1.8,1.8,0,0,1,1.305-.52h7.425a1.79,1.79,0,0,1,1.293.52,1.671,1.671,0,0,1,.537,1.251v6.3a1.71,1.71,0,0,1-.537,1.268,11.278,11.278,0,0,1-15.6,0Z" transform="translate(-261.366 -115.82)" fill="#083c58"/>
      <path id="Path_1652" data-name="Path 1652" d="M488.443,137.247a1.8,1.8,0,0,1-1.305-.521,1.7,1.7,0,0,1-.537-1.268V117.631a1.687,1.687,0,0,1,.537-1.251,1.8,1.8,0,0,1,1.305-.521h14.708a1.79,1.79,0,0,1,1.293.521,1.687,1.687,0,0,1,.537,1.251,1.723,1.723,0,0,1-.537,1.268,1.79,1.79,0,0,1-1.293.521H490.269v5.352h9.193a1.8,1.8,0,0,1,1.305.52,1.687,1.687,0,0,1,.537,1.251,1.723,1.723,0,0,1-.537,1.268,1.8,1.8,0,0,1-1.305.521h-9.193v5.352h12.882a1.79,1.79,0,0,1,1.293.52,1.687,1.687,0,0,1,.537,1.251,1.723,1.723,0,0,1-.537,1.268,1.79,1.79,0,0,1-1.293.52H488.443Z" transform="translate(-299.767 -115.825)" fill="#083c58"/>
      <path id="Path_1653" data-name="Path 1653" d="M552.273,137.2a1.8,1.8,0,0,1-1.305-.521,1.7,1.7,0,0,1-.537-1.268V117.584a1.646,1.646,0,0,1,1.2-1.671,1.728,1.728,0,0,1,2.044.521l12.387,14.129V117.579a1.687,1.687,0,0,1,.537-1.251,1.784,1.784,0,0,1,1.293-.52,1.812,1.812,0,0,1,1.305.52,1.687,1.687,0,0,1,.537,1.251v17.827a1.648,1.648,0,0,1-1.2,1.683,1.951,1.951,0,0,1-.646.1,1.792,1.792,0,0,1-1.4-.625L554.1,122.44v12.966a1.71,1.71,0,0,1-.537,1.268,1.79,1.79,0,0,1-1.293.52Z" transform="translate(-336.804 -115.778)" fill="#083c58"/>
      <path id="Path_1654" data-name="Path 1654" d="M627.5,137.241a10.8,10.8,0,0,1-7.807-3.131,10.476,10.476,0,0,1,0-15.128,11.278,11.278,0,0,1,15.6,0,1.687,1.687,0,0,1,.537,1.251,1.723,1.723,0,0,1-.537,1.268,1.783,1.783,0,0,1-1.293.521,1.812,1.812,0,0,1-1.305-.521,7.531,7.531,0,0,0-10.406,0,6.988,6.988,0,0,0,0,10.091,7.531,7.531,0,0,0,10.406,0,1.8,1.8,0,0,1,1.305-.521,1.777,1.777,0,0,1,1.293.521,1.671,1.671,0,0,1,.537,1.251,1.723,1.723,0,0,1-.537,1.268A10.788,10.788,0,0,1,627.5,137.241Z" transform="translate(-375.117 -115.82)" fill="#083c58"/>
      <path id="Path_1655" data-name="Path 1655" d="M684.473,137.247a1.8,1.8,0,0,1-1.305-.521,1.7,1.7,0,0,1-.537-1.268V117.631a1.687,1.687,0,0,1,.537-1.251,1.8,1.8,0,0,1,1.305-.521h14.708a1.79,1.79,0,0,1,1.293.521,1.687,1.687,0,0,1,.537,1.251,1.723,1.723,0,0,1-.537,1.268,1.79,1.79,0,0,1-1.293.521H686.3v5.352h9.193a1.8,1.8,0,0,1,1.305.52,1.687,1.687,0,0,1,.537,1.251,1.723,1.723,0,0,1-.537,1.268,1.8,1.8,0,0,1-1.305.521H686.3v5.352h12.882a1.79,1.79,0,0,1,1.293.52,1.687,1.687,0,0,1,.537,1.251,1.723,1.723,0,0,1-.537,1.268,1.79,1.79,0,0,1-1.293.52H684.473Z" transform="translate(-413.512 -115.825)" fill="#083c58"/>
    </g>
    <rect id="Rectangle_505" data-name="Rectangle 505" width="20.375" height="4.105" rx="2.053" transform="translate(20.62 36.055)" fill="#f27100"/>
    <rect id="Rectangle_506" data-name="Rectangle 506" width="20.375" height="4.105" rx="2.053" transform="translate(20.62 74.706)" fill="#f27100"/>
    <g id="Group_829" data-name="Group 829" transform="translate(176.93 3.462)">
      <path id="Path_1656" data-name="Path 1656" d="M439.088,16.566h-.05c-2.271-.029-3.9-2.048-4.168-5.138-.29-3.383,1.125-7.3,4.315-7.9a3.48,3.48,0,0,1,3.581,1.415c1.54,2.061,1.654,6.133.248,8.886a4.424,4.424,0,0,1-3.929,2.728Zm.831-10.809a1.617,1.617,0,0,0-.311.029c-1.717.319-2.649,3.073-2.447,5.44.126,1.457.693,3.022,1.906,3.039h0a2.3,2.3,0,0,0,1.906-1.478c1-1.96.978-5.1-.042-6.468a1.2,1.2,0,0,0-1.012-.562Z" transform="translate(-417.275 -3.462)" fill="#f27100"/>
      <path id="Path_1657" data-name="Path 1657" d="M439.088,16.568h-.05c-2.271-.029-3.9-2.048-4.168-5.138-.29-3.383,1.125-7.3,4.315-7.9a3.487,3.487,0,0,1,3.581,1.415c1.54,2.061,1.654,6.133.248,8.886a4.424,4.424,0,0,1-3.929,2.728Zm.831-10.809a1.617,1.617,0,0,0-.311.029c-1.717.319-2.649,3.073-2.447,5.44.126,1.457.693,3.022,1.906,3.039h0a2.3,2.3,0,0,0,1.906-1.478c1-1.96.978-5.1-.042-6.468a1.2,1.2,0,0,0-1.012-.562Z" transform="translate(-417.275 -3.464)" fill="#f27100"/>
      <path id="Path_1658" data-name="Path 1658" d="M416.172,16.6a3.563,3.563,0,0,1-2.384-.97c-1.964-1.755-2.959-5.847-2.132-8.765a4.279,4.279,0,0,1,3.358-3.329c2.241-.4,4.277,1.318,5.163,4.382.94,3.241.332,7.165-2.653,8.4a3.529,3.529,0,0,1-1.356.277Zm-.529-10.821a1.43,1.43,0,0,0-.231.021c-.756.13-1.259.688-1.549,1.7-.588,2.061.13,5.243,1.452,6.422a1.156,1.156,0,0,0,1.339.281c1.633-.672,1.956-3.45,1.322-5.633-.369-1.284-1.2-2.783-2.334-2.783Z" transform="translate(-403.657 -3.475)" fill="#f27100"/>
      <path id="Path_1659" data-name="Path 1659" d="M398.258,35.609a4.024,4.024,0,0,1-2.875-1.36c-1.9-1.964-2.875-5.6-2.124-7.938a3.313,3.313,0,0,1,2.624-2.393c2.619-.479,4.957,2.468,5.688,5.591.7,3.005-.235,5.348-2.388,5.969a3.328,3.328,0,0,1-.928.134Zm-1.969-9.432c-.3.055-.638.2-.844.84a6.82,6.82,0,0,0,1.587,5.637,1.543,1.543,0,0,0,1.515.617c1.377-.4.9-2.77.789-3.241-.453-1.948-1.876-4.063-3.043-3.853Z" transform="translate(-393.004 -15.302)" fill="#f27100"/>
      <path id="Path_1660" data-name="Path 1660" d="M458.719,31.767a3.094,3.094,0,0,1-2.275-1.041c-1.494-1.591-1.31-4.2-.638-6.112.881-2.51,2.64-4.3,4.483-4.563a3.24,3.24,0,0,1,3.337,2.027c1.373,2.85-.411,7.325-2.833,8.987A3.715,3.715,0,0,1,458.719,31.767Zm1.977-9.449a.536.536,0,0,0-.08,0h0c-.957.134-2.065,1.419-2.64,3.052-.554,1.578-.5,3.1.147,3.782.264.285.609.541,1.373.017,1.57-1.079,2.9-4.353,2.065-6.1C461.523,22.994,461.183,22.318,460.7,22.318Z" transform="translate(-429.153 -13.072)" fill="#f27100"/>
      <path id="Path_1661" data-name="Path 1661" d="M429.82,50.243c-1.18-1.918-5.906-6.51-7.589-7.933a6.864,6.864,0,0,0-5.025-1.763,7.02,7.02,0,0,0-4.3,1.977,80.327,80.327,0,0,0-6.212,6.212,9.249,9.249,0,0,0-2.166,3.954,8.384,8.384,0,0,0,8.126,10.28,8.606,8.606,0,0,0,5-1.65,9.733,9.733,0,0,0,3.5,1.494,8.4,8.4,0,0,0,8.492-3.564,8.216,8.216,0,0,0,.172-9.012Zm-18.923,10a6.1,6.1,0,0,1-1.818-.932l.705-1.511h5.78l.68,1.469a.7.7,0,0,0,.034.084,6.545,6.545,0,0,1-5.377.894Zm-.16-4.508,1.931-4.172,1.939,4.172Zm16.2,2.989a5.845,5.845,0,0,1-7.216.953,4.358,4.358,0,0,0,1.217-3.308h-.008V48.955a.824.824,0,0,0-.315-.646,1.118,1.118,0,0,0-.756-.269,1.162,1.162,0,0,0-.764.269.824.824,0,0,0-.315.646v7.56a2.889,2.889,0,0,1-.621,1.687,9.743,9.743,0,0,1-.479-.852l-.533-1.146h0l-3.513-7.56a1.07,1.07,0,0,0-1.931,0l-4.16,8.966a5.39,5.39,0,0,1-.537-1.234,5.955,5.955,0,0,1,1.381-5.9,69.111,69.111,0,0,1,6.422-6.414,4.21,4.21,0,0,1,5.738,0,69.507,69.507,0,0,1,6.372,6.359,5.867,5.867,0,0,1,.017,8.3Z" transform="translate(-399.565 -24.971)" fill="#f27100"/>
      <path id="Path_1662" data-name="Path 1662" d="M448.85,58.77" transform="translate(-425.408 -35.554)" fill="#f27100"/>
    </g>
  </g>
</svg>
